<mxfile host="app.diagrams.net" agent="Mozilla/5.0 (Windows NT 10.0; Win64; x64) AppleWebKit/537.36 (KHTML, like Gecko) Chrome/128.0.0.0 Safari/537.36" version="24.7.10">
  <diagram name="Page-1" id="HgSNCbOpHClE4Bi01R64">
    <mxGraphModel dx="1221" dy="759" grid="1" gridSize="10" guides="1" tooltips="1" connect="1" arrows="1" fold="1" page="1" pageScale="1" pageWidth="827" pageHeight="1169" math="0" shadow="0">
      <root>
        <mxCell id="0" />
        <mxCell id="1" parent="0" />
        <mxCell id="Tg1WrlPKfQEgz7usjzul-2" value="" style="rounded=0;whiteSpace=wrap;html=1;" parent="1" vertex="1">
          <mxGeometry x="70" y="90" width="940" height="730" as="geometry" />
        </mxCell>
        <mxCell id="Tg1WrlPKfQEgz7usjzul-81" value="" style="rounded=0;whiteSpace=wrap;html=1;" parent="1" vertex="1">
          <mxGeometry x="530" y="115" width="470" height="680" as="geometry" />
        </mxCell>
        <mxCell id="Tg1WrlPKfQEgz7usjzul-82" value="" style="outlineConnect=0;dashed=0;verticalLabelPosition=bottom;verticalAlign=top;align=center;html=1;shape=mxgraph.aws3.lambda_function;fillColor=#F58534;gradientColor=none;" parent="1" vertex="1">
          <mxGeometry x="230" y="200" width="69" height="72" as="geometry" />
        </mxCell>
        <mxCell id="Tg1WrlPKfQEgz7usjzul-83" value="&lt;div style=&quot;text-align: justify;&quot;&gt;&lt;br&gt;&lt;/div&gt;" style="rounded=0;whiteSpace=wrap;html=1;" parent="1" vertex="1">
          <mxGeometry x="100" y="180" width="210" height="120" as="geometry" />
        </mxCell>
        <mxCell id="Tg1WrlPKfQEgz7usjzul-84" value="Account Management ASV" style="text;html=1;align=center;verticalAlign=middle;whiteSpace=wrap;rounded=0;" parent="1" vertex="1">
          <mxGeometry x="127.5" y="190" width="155" height="30" as="geometry" />
        </mxCell>
        <mxCell id="Tg1WrlPKfQEgz7usjzul-85" value="" style="sketch=0;points=[[0,0,0],[0.25,0,0],[0.5,0,0],[0.75,0,0],[1,0,0],[0,1,0],[0.25,1,0],[0.5,1,0],[0.75,1,0],[1,1,0],[0,0.25,0],[0,0.5,0],[0,0.75,0],[1,0.25,0],[1,0.5,0],[1,0.75,0]];outlineConnect=0;fontColor=#232F3E;fillColor=#ED7100;strokeColor=#ffffff;dashed=0;verticalLabelPosition=bottom;verticalAlign=top;align=center;html=1;fontSize=12;fontStyle=0;aspect=fixed;shape=mxgraph.aws4.resourceIcon;resIcon=mxgraph.aws4.ecs;" parent="1" vertex="1">
          <mxGeometry x="180" y="220" width="50" height="50" as="geometry" />
        </mxCell>
        <mxCell id="Tg1WrlPKfQEgz7usjzul-86" value="Lorax config" style="text;html=1;align=center;verticalAlign=middle;whiteSpace=wrap;rounded=0;" parent="1" vertex="1">
          <mxGeometry x="170" y="270" width="70" height="30" as="geometry" />
        </mxCell>
        <mxCell id="Tg1WrlPKfQEgz7usjzul-87" value="" style="edgeStyle=orthogonalEdgeStyle;rounded=0;orthogonalLoop=1;jettySize=auto;html=1;" parent="1" source="Tg1WrlPKfQEgz7usjzul-88" target="Tg1WrlPKfQEgz7usjzul-93" edge="1">
          <mxGeometry relative="1" as="geometry" />
        </mxCell>
        <mxCell id="Tg1WrlPKfQEgz7usjzul-88" value="" style="rounded=0;whiteSpace=wrap;html=1;" parent="1" vertex="1">
          <mxGeometry x="370" y="210" width="90" height="70" as="geometry" />
        </mxCell>
        <mxCell id="Tg1WrlPKfQEgz7usjzul-89" value="" style="sketch=0;outlineConnect=0;fontColor=#232F3E;gradientColor=none;fillColor=#8C4FFF;strokeColor=none;dashed=0;verticalLabelPosition=bottom;verticalAlign=top;align=center;html=1;fontSize=12;fontStyle=0;aspect=fixed;pointerEvents=1;shape=mxgraph.aws4.data_exchange_for_apis;" parent="1" vertex="1">
          <mxGeometry x="394" y="216" width="40" height="40" as="geometry" />
        </mxCell>
        <mxCell id="Tg1WrlPKfQEgz7usjzul-90" value="Exchange" style="text;html=1;align=center;verticalAlign=middle;whiteSpace=wrap;rounded=0;" parent="1" vertex="1">
          <mxGeometry x="385" y="256" width="60" height="30" as="geometry" />
        </mxCell>
        <mxCell id="Tg1WrlPKfQEgz7usjzul-91" value="" style="endArrow=classic;html=1;rounded=0;entryX=0;entryY=0.5;entryDx=0;entryDy=0;exitX=1.008;exitY=0.558;exitDx=0;exitDy=0;exitPerimeter=0;" parent="1" source="Tg1WrlPKfQEgz7usjzul-83" target="Tg1WrlPKfQEgz7usjzul-88" edge="1">
          <mxGeometry width="50" height="50" relative="1" as="geometry">
            <mxPoint x="310" y="250" as="sourcePoint" />
            <mxPoint x="360" y="200" as="targetPoint" />
          </mxGeometry>
        </mxCell>
        <mxCell id="Tg1WrlPKfQEgz7usjzul-92" value="" style="edgeStyle=orthogonalEdgeStyle;rounded=0;orthogonalLoop=1;jettySize=auto;html=1;" parent="1" source="Tg1WrlPKfQEgz7usjzul-93" target="Tg1WrlPKfQEgz7usjzul-96" edge="1">
          <mxGeometry relative="1" as="geometry" />
        </mxCell>
        <mxCell id="Tg1WrlPKfQEgz7usjzul-93" value="" style="sketch=0;points=[[0,0,0],[0.25,0,0],[0.5,0,0],[0.75,0,0],[1,0,0],[0,1,0],[0.25,1,0],[0.5,1,0],[0.75,1,0],[1,1,0],[0,0.25,0],[0,0.5,0],[0,0.75,0],[1,0.25,0],[1,0.5,0],[1,0.75,0]];outlineConnect=0;fontColor=#232F3E;fillColor=#ED7100;strokeColor=#ffffff;dashed=0;verticalLabelPosition=bottom;verticalAlign=top;align=center;html=1;fontSize=12;fontStyle=0;aspect=fixed;shape=mxgraph.aws4.resourceIcon;resIcon=mxgraph.aws4.lambda;" parent="1" vertex="1">
          <mxGeometry x="540" y="220" width="50" height="50" as="geometry" />
        </mxCell>
        <mxCell id="Tg1WrlPKfQEgz7usjzul-94" value="" style="sketch=0;outlineConnect=0;fontColor=#232F3E;gradientColor=none;fillColor=#7AA116;strokeColor=none;dashed=0;verticalLabelPosition=bottom;verticalAlign=top;align=center;html=1;fontSize=12;fontStyle=0;aspect=fixed;pointerEvents=1;shape=mxgraph.aws4.bucket;" parent="1" vertex="1">
          <mxGeometry x="681.92" y="180" width="46.15" height="48" as="geometry" />
        </mxCell>
        <mxCell id="Tg1WrlPKfQEgz7usjzul-95" value="" style="edgeStyle=orthogonalEdgeStyle;rounded=0;orthogonalLoop=1;jettySize=auto;html=1;" parent="1" source="Tg1WrlPKfQEgz7usjzul-96" edge="1">
          <mxGeometry relative="1" as="geometry">
            <mxPoint x="705" y="320" as="targetPoint" />
          </mxGeometry>
        </mxCell>
        <mxCell id="Tg1WrlPKfQEgz7usjzul-96" value="S3 Bucket&lt;br&gt;central storage" style="text;html=1;align=center;verticalAlign=middle;whiteSpace=wrap;rounded=0;" parent="1" vertex="1">
          <mxGeometry x="660" y="230" width="90" height="30" as="geometry" />
        </mxCell>
        <mxCell id="Tg1WrlPKfQEgz7usjzul-97" value="Writer" style="text;html=1;align=center;verticalAlign=middle;whiteSpace=wrap;rounded=0;" parent="1" vertex="1">
          <mxGeometry x="535" y="190" width="60" height="30" as="geometry" />
        </mxCell>
        <mxCell id="Tg1WrlPKfQEgz7usjzul-98" value="" style="edgeStyle=orthogonalEdgeStyle;rounded=0;orthogonalLoop=1;jettySize=auto;html=1;" parent="1" source="Tg1WrlPKfQEgz7usjzul-99" target="Tg1WrlPKfQEgz7usjzul-106" edge="1">
          <mxGeometry relative="1" as="geometry" />
        </mxCell>
        <mxCell id="Tg1WrlPKfQEgz7usjzul-99" value="" style="sketch=0;points=[[0,0,0],[0.25,0,0],[0.5,0,0],[0.75,0,0],[1,0,0],[0,1,0],[0.25,1,0],[0.5,1,0],[0.75,1,0],[1,1,0],[0,0.25,0],[0,0.5,0],[0,0.75,0],[1,0.25,0],[1,0.5,0],[1,0.75,0]];outlineConnect=0;fontColor=#232F3E;fillColor=#E7157B;strokeColor=#ffffff;dashed=0;verticalLabelPosition=bottom;verticalAlign=top;align=center;html=1;fontSize=12;fontStyle=0;aspect=fixed;shape=mxgraph.aws4.resourceIcon;resIcon=mxgraph.aws4.sqs;" parent="1" vertex="1">
          <mxGeometry x="680" y="410" width="60" height="60" as="geometry" />
        </mxCell>
        <mxCell id="Tg1WrlPKfQEgz7usjzul-100" value="Notification &lt;span class=&quot;hljs-keyword&quot;&gt;to&lt;br&gt;Cache Refresh&lt;br&gt;&lt;/span&gt;" style="text;html=1;align=center;verticalAlign=middle;whiteSpace=wrap;rounded=0;" parent="1" vertex="1">
          <mxGeometry x="580" y="430" width="90" height="30" as="geometry" />
        </mxCell>
        <mxCell id="Tg1WrlPKfQEgz7usjzul-101" value="" style="edgeStyle=orthogonalEdgeStyle;rounded=0;orthogonalLoop=1;jettySize=auto;html=1;" parent="1" target="Tg1WrlPKfQEgz7usjzul-99" edge="1">
          <mxGeometry relative="1" as="geometry">
            <mxPoint x="710" y="370" as="sourcePoint" />
          </mxGeometry>
        </mxCell>
        <mxCell id="Tg1WrlPKfQEgz7usjzul-102" value="" style="sketch=0;aspect=fixed;pointerEvents=1;shadow=0;dashed=0;html=1;strokeColor=none;labelPosition=center;verticalLabelPosition=bottom;verticalAlign=top;align=center;shape=mxgraph.mscae.enterprise.triggers;fillColor=#0078D7;" parent="1" vertex="1">
          <mxGeometry x="682" y="320" width="47" height="50" as="geometry" />
        </mxCell>
        <mxCell id="Tg1WrlPKfQEgz7usjzul-103" value="&lt;br&gt;S3 Event &lt;span class=&quot;hljs-keyword&quot;&gt;Trigger&lt;/span&gt; &lt;br&gt;(on config change)" style="text;html=1;align=center;verticalAlign=middle;whiteSpace=wrap;rounded=0;" parent="1" vertex="1">
          <mxGeometry x="540" y="331" width="145" height="30" as="geometry" />
        </mxCell>
        <mxCell id="Tg1WrlPKfQEgz7usjzul-104" style="edgeStyle=orthogonalEdgeStyle;rounded=0;orthogonalLoop=1;jettySize=auto;html=1;" parent="1" source="Tg1WrlPKfQEgz7usjzul-106" target="Tg1WrlPKfQEgz7usjzul-108" edge="1">
          <mxGeometry relative="1" as="geometry" />
        </mxCell>
        <mxCell id="Tg1WrlPKfQEgz7usjzul-105" value="" style="edgeStyle=orthogonalEdgeStyle;rounded=0;orthogonalLoop=1;jettySize=auto;html=1;" parent="1" source="Tg1WrlPKfQEgz7usjzul-106" target="Tg1WrlPKfQEgz7usjzul-110" edge="1">
          <mxGeometry relative="1" as="geometry" />
        </mxCell>
        <mxCell id="Tg1WrlPKfQEgz7usjzul-106" value="" style="sketch=0;points=[[0,0,0],[0.25,0,0],[0.5,0,0],[0.75,0,0],[1,0,0],[0,1,0],[0.25,1,0],[0.5,1,0],[0.75,1,0],[1,1,0],[0,0.25,0],[0,0.5,0],[0,0.75,0],[1,0.25,0],[1,0.5,0],[1,0.75,0]];outlineConnect=0;fontColor=#232F3E;fillColor=#ED7100;strokeColor=#ffffff;dashed=0;verticalLabelPosition=bottom;verticalAlign=top;align=center;html=1;fontSize=12;fontStyle=0;aspect=fixed;shape=mxgraph.aws4.resourceIcon;resIcon=mxgraph.aws4.lambda;" parent="1" vertex="1">
          <mxGeometry x="678.5" y="507" width="63" height="63" as="geometry" />
        </mxCell>
        <mxCell id="Tg1WrlPKfQEgz7usjzul-107" value="Cache Refresh&lt;br&gt;Tasks" style="text;html=1;align=center;verticalAlign=middle;whiteSpace=wrap;rounded=0;" parent="1" vertex="1">
          <mxGeometry x="550" y="523.5" width="130" height="30" as="geometry" />
        </mxCell>
        <mxCell id="Tg1WrlPKfQEgz7usjzul-108" value="" style="sketch=0;points=[[0,0,0],[0.25,0,0],[0.5,0,0],[0.75,0,0],[1,0,0],[0,1,0],[0.25,1,0],[0.5,1,0],[0.75,1,0],[1,1,0],[0,0.25,0],[0,0.5,0],[0,0.75,0],[1,0.25,0],[1,0.5,0],[1,0.75,0]];outlineConnect=0;fontColor=#232F3E;fillColor=#ED7100;strokeColor=#ffffff;dashed=0;verticalLabelPosition=bottom;verticalAlign=top;align=center;html=1;fontSize=12;fontStyle=0;aspect=fixed;shape=mxgraph.aws4.resourceIcon;resIcon=mxgraph.aws4.elemental_mediapackage;" parent="1" vertex="1">
          <mxGeometry x="840" y="190" width="78" height="78" as="geometry" />
        </mxCell>
        <mxCell id="Tg1WrlPKfQEgz7usjzul-109" value="" style="edgeStyle=orthogonalEdgeStyle;rounded=0;orthogonalLoop=1;jettySize=auto;html=1;" parent="1" source="Tg1WrlPKfQEgz7usjzul-110" target="Tg1WrlPKfQEgz7usjzul-112" edge="1">
          <mxGeometry relative="1" as="geometry" />
        </mxCell>
        <mxCell id="Tg1WrlPKfQEgz7usjzul-110" value="" style="sketch=0;outlineConnect=0;fontColor=#232F3E;gradientColor=none;fillColor=#ED7100;strokeColor=none;dashed=0;verticalLabelPosition=bottom;verticalAlign=top;align=center;html=1;fontSize=12;fontStyle=0;aspect=fixed;pointerEvents=1;shape=mxgraph.aws4.instance_with_cloudwatch2;" parent="1" vertex="1">
          <mxGeometry x="686" y="600" width="48" height="48" as="geometry" />
        </mxCell>
        <mxCell id="Tg1WrlPKfQEgz7usjzul-111" value="&lt;br&gt;CloudWatch &lt;span class=&quot;hljs-operator&quot;&gt;&amp;amp;&lt;/span&gt; DLQ (Monitoring&amp;amp; Error Management&lt;div&gt;&lt;br/&gt;&lt;/div&gt;" style="text;html=1;align=center;verticalAlign=middle;whiteSpace=wrap;rounded=0;" parent="1" vertex="1">
          <mxGeometry x="563" y="610" width="120" height="38" as="geometry" />
        </mxCell>
        <mxCell id="Tg1WrlPKfQEgz7usjzul-112" value="" style="outlineConnect=0;dashed=0;verticalLabelPosition=bottom;verticalAlign=top;align=center;html=1;shape=mxgraph.aws3.cloudwatch;fillColor=#759C3E;gradientColor=none;" parent="1" vertex="1">
          <mxGeometry x="820" y="593.75" width="60" height="60.5" as="geometry" />
        </mxCell>
        <mxCell id="Tg1WrlPKfQEgz7usjzul-113" value="&lt;br&gt; PagerDuty    &lt;br&gt;(Alerts &amp;amp; Notifications)" style="text;html=1;align=center;verticalAlign=middle;whiteSpace=wrap;rounded=0;" parent="1" vertex="1">
          <mxGeometry x="870" y="624.25" width="140" height="30" as="geometry" />
        </mxCell>
        <mxCell id="Tg1WrlPKfQEgz7usjzul-114" value="Api-Service&lt;br&gt;per service" style="text;html=1;align=center;verticalAlign=middle;whiteSpace=wrap;rounded=0;" parent="1" vertex="1">
          <mxGeometry x="810" y="150" width="150" height="40" as="geometry" />
        </mxCell>
      </root>
    </mxGraphModel>
  </diagram>
</mxfile>
